<svg xmlns="http://www.w3.org/2000/svg" viewBox="0 0 16 16" width="16" height="16" shape-rendering="crispEdges">
  <!-- napster.exe RT_GROUP_ICON 339 (16×16) -->
  <rect x="5" y="2" width="4" height="1" fill="#000000"/>
  <rect x="3" y="3" width="2" height="1" fill="#000000"/>
  <rect x="5" y="3" width="4" height="1" fill="#ffffff"/>
  <rect x="9" y="3" width="2" height="1" fill="#000000"/>
  <rect x="3" y="4" width="1" height="1" fill="#000000"/>
  <rect x="4" y="4" width="1" height="1" fill="#ffffff"/>
  <rect x="5" y="4" width="3" height="1" fill="#00ffff"/>
  <rect x="8" y="4" width="2" height="3" fill="#ffffff"/>
  <rect x="10" y="4" width="1" height="1" fill="#000000"/>
  <rect x="2" y="5" width="1" height="4" fill="#000000"/>
  <rect x="3" y="5" width="1" height="4" fill="#ffffff"/>
  <rect x="4" y="5" width="3" height="4" fill="#00ffff"/>
  <rect x="7" y="5" width="1" height="4" fill="#ffffff"/>
  <rect x="10" y="5" width="1" height="4" fill="#ffffff"/>
  <rect x="11" y="5" width="1" height="4" fill="#000000"/>
  <rect x="8" y="7" width="1" height="2" fill="#ffffff"/>
  <rect x="9" y="7" width="1" height="2" fill="#000000"/>
  <rect x="3" y="9" width="1" height="2" fill="#000000"/>
  <rect x="4" y="9" width="1" height="1" fill="#ffffff"/>
  <rect x="5" y="9" width="2" height="1" fill="#00ffff"/>
  <rect x="7" y="9" width="2" height="1" fill="#000000"/>
  <rect x="9" y="9" width="1" height="1" fill="#ffffff"/>
  <rect x="10" y="9" width="1" height="3" fill="#000000"/>
  <rect x="4" y="10" width="1" height="1" fill="#000000"/>
  <rect x="5" y="10" width="4" height="1" fill="#ffffff"/>
  <rect x="9" y="10" width="1" height="1" fill="#000000"/>
  <rect x="11" y="10" width="1" height="3" fill="#000000"/>
  <rect x="5" y="11" width="4" height="1" fill="#000000"/>
  <rect x="12" y="11" width="1" height="3" fill="#000000"/>
  <rect x="13" y="12" width="1" height="3" fill="#000000"/>
  <rect x="14" y="13" width="1" height="1" fill="#000000"/>
</svg>
