<svg xmlns="http://www.w3.org/2000/svg" viewBox="0 0 50 12" width="50" height="12" shape-rendering="crispEdges">
  <!-- napster.exe RT_BITMAP 452 (50×12) -->
  <rect x="0" y="0" width="50" height="1" fill="#000080"/>
  <rect x="0" y="1" width="5" height="1" fill="#000080"/>
  <rect x="5" y="1" width="2" height="1" fill="#808080"/>
  <rect x="7" y="1" width="6" height="1" fill="#000080"/>
  <rect x="13" y="1" width="3" height="1" fill="#808080"/>
  <rect x="16" y="1" width="6" height="1" fill="#000080"/>
  <rect x="22" y="1" width="2" height="1" fill="#808080"/>
  <rect x="24" y="1" width="3" height="1" fill="#000080"/>
  <rect x="27" y="1" width="1" height="1" fill="#808080"/>
  <rect x="28" y="1" width="5" height="1" fill="#000080"/>
  <rect x="33" y="1" width="2" height="1" fill="#808080"/>
  <rect x="35" y="1" width="5" height="1" fill="#000080"/>
  <rect x="40" y="1" width="2" height="1" fill="#808080"/>
  <rect x="42" y="1" width="3" height="2" fill="#000080"/>
  <rect x="45" y="1" width="2" height="1" fill="#808080"/>
  <rect x="47" y="1" width="3" height="11" fill="#000080"/>
  <rect x="0" y="2" width="4" height="1" fill="#000080"/>
  <rect x="4" y="2" width="1" height="1" fill="#c0c0c0"/>
  <rect x="5" y="2" width="3" height="1" fill="#ffffff"/>
  <rect x="8" y="2" width="1" height="1" fill="#808080"/>
  <rect x="9" y="2" width="3" height="10" fill="#000080"/>
  <rect x="12" y="2" width="1" height="1" fill="#808080"/>
  <rect x="13" y="2" width="4" height="1" fill="#ffffff"/>
  <rect x="17" y="2" width="1" height="1" fill="#c0c0c0"/>
  <rect x="18" y="2" width="4" height="1" fill="#000080"/>
  <rect x="22" y="2" width="2" height="2" fill="#ffffff"/>
  <rect x="24" y="2" width="2" height="1" fill="#000080"/>
  <rect x="26" y="2" width="1" height="5" fill="#808080"/>
  <rect x="27" y="2" width="1" height="8" fill="#ffffff"/>
  <rect x="28" y="2" width="4" height="1" fill="#000080"/>
  <rect x="32" y="2" width="1" height="1" fill="#c0c0c0"/>
  <rect x="33" y="2" width="2" height="1" fill="#ffffff"/>
  <rect x="35" y="2" width="1" height="1" fill="#c0c0c0"/>
  <rect x="36" y="2" width="1" height="1" fill="#808080"/>
  <rect x="37" y="2" width="3" height="3" fill="#000080"/>
  <rect x="40" y="2" width="1" height="1" fill="#ffffff"/>
  <rect x="41" y="2" width="1" height="1" fill="#c0c0c0"/>
  <rect x="45" y="2" width="1" height="1" fill="#c0c0c0"/>
  <rect x="46" y="2" width="1" height="1" fill="#ffffff"/>
  <rect x="0" y="3" width="3" height="9" fill="#000080"/>
  <rect x="3" y="3" width="1" height="1" fill="#808080"/>
  <rect x="4" y="3" width="1" height="1" fill="#ffffff"/>
  <rect x="5" y="3" width="1" height="1" fill="#808080"/>
  <rect x="6" y="3" width="1" height="6" fill="#000080"/>
  <rect x="7" y="3" width="2" height="1" fill="#c0c0c0"/>
  <rect x="12" y="3" width="1" height="6" fill="#000080"/>
  <rect x="13" y="3" width="1" height="7" fill="#ffffff"/>
  <rect x="14" y="3" width="1" height="6" fill="#808080"/>
  <rect x="15" y="3" width="1" height="6" fill="#000080"/>
  <rect x="16" y="3" width="1" height="1" fill="#808080"/>
  <rect x="17" y="3" width="1" height="6" fill="#ffffff"/>
  <rect x="18" y="3" width="1" height="2" fill="#808080"/>
  <rect x="19" y="3" width="3" height="9" fill="#000080"/>
  <rect x="24" y="3" width="1" height="1" fill="#808080"/>
  <rect x="25" y="3" width="1" height="2" fill="#000080"/>
  <rect x="28" y="3" width="3" height="9" fill="#000080"/>
  <rect x="31" y="3" width="1" height="1" fill="#808080"/>
  <rect x="32" y="3" width="1" height="1" fill="#ffffff"/>
  <rect x="33" y="3" width="1" height="1" fill="#808080"/>
  <rect x="34" y="3" width="1" height="6" fill="#000080"/>
  <rect x="35" y="3" width="1" height="1" fill="#ffffff"/>
  <rect x="36" y="3" width="1" height="1" fill="#c0c0c0"/>
  <rect x="40" y="3" width="1" height="2" fill="#c0c0c0"/>
  <rect x="41" y="3" width="1" height="6" fill="#ffffff"/>
  <rect x="42" y="3" width="1" height="2" fill="#000080"/>
  <rect x="43" y="3" width="1" height="1" fill="#c0c0c0"/>
  <rect x="44" y="3" width="1" height="2" fill="#000080"/>
  <rect x="45" y="3" width="1" height="6" fill="#ffffff"/>
  <rect x="46" y="3" width="1" height="2" fill="#c0c0c0"/>
  <rect x="3" y="4" width="2" height="1" fill="#c0c0c0"/>
  <rect x="5" y="4" width="1" height="4" fill="#000080"/>
  <rect x="7" y="4" width="2" height="4" fill="#000080"/>
  <rect x="16" y="4" width="1" height="4" fill="#000080"/>
  <rect x="22" y="4" width="1" height="6" fill="#ffffff"/>
  <rect x="23" y="4" width="1" height="1" fill="#c0c0c0"/>
  <rect x="24" y="4" width="1" height="2" fill="#ffffff"/>
  <rect x="31" y="4" width="1" height="4" fill="#ffffff"/>
  <rect x="32" y="4" width="1" height="1" fill="#c0c0c0"/>
  <rect x="33" y="4" width="1" height="4" fill="#000080"/>
  <rect x="35" y="4" width="1" height="4" fill="#808080"/>
  <rect x="36" y="4" width="1" height="4" fill="#ffffff"/>
  <rect x="43" y="4" width="1" height="3" fill="#ffffff"/>
  <rect x="3" y="5" width="1" height="2" fill="#ffffff"/>
  <rect x="4" y="5" width="1" height="2" fill="#808080"/>
  <rect x="18" y="5" width="1" height="2" fill="#c0c0c0"/>
  <rect x="23" y="5" width="1" height="5" fill="#808080"/>
  <rect x="25" y="5" width="1" height="1" fill="#808080"/>
  <rect x="32" y="5" width="1" height="2" fill="#808080"/>
  <rect x="37" y="5" width="1" height="2" fill="#808080"/>
  <rect x="38" y="5" width="2" height="7" fill="#000080"/>
  <rect x="40" y="5" width="1" height="2" fill="#808080"/>
  <rect x="42" y="5" width="1" height="1" fill="#808080"/>
  <rect x="44" y="5" width="1" height="1" fill="#808080"/>
  <rect x="46" y="5" width="1" height="2" fill="#808080"/>
  <rect x="24" y="6" width="1" height="1" fill="#808080"/>
  <rect x="25" y="6" width="1" height="1" fill="#c0c0c0"/>
  <rect x="42" y="6" width="1" height="2" fill="#ffffff"/>
  <rect x="44" y="6" width="1" height="2" fill="#ffffff"/>
  <rect x="3" y="7" width="2" height="1" fill="#c0c0c0"/>
  <rect x="18" y="7" width="1" height="2" fill="#808080"/>
  <rect x="24" y="7" width="1" height="5" fill="#000080"/>
  <rect x="25" y="7" width="1" height="1" fill="#ffffff"/>
  <rect x="26" y="7" width="1" height="1" fill="#c0c0c0"/>
  <rect x="32" y="7" width="1" height="1" fill="#c0c0c0"/>
  <rect x="37" y="7" width="1" height="5" fill="#000080"/>
  <rect x="40" y="7" width="1" height="5" fill="#000080"/>
  <rect x="43" y="7" width="1" height="5" fill="#000080"/>
  <rect x="46" y="7" width="1" height="5" fill="#000080"/>
  <rect x="3" y="8" width="1" height="1" fill="#808080"/>
  <rect x="4" y="8" width="1" height="1" fill="#ffffff"/>
  <rect x="5" y="8" width="1" height="1" fill="#808080"/>
  <rect x="7" y="8" width="1" height="1" fill="#c0c0c0"/>
  <rect x="8" y="8" width="1" height="1" fill="#ffffff"/>
  <rect x="16" y="8" width="1" height="1" fill="#808080"/>
  <rect x="25" y="8" width="1" height="1" fill="#c0c0c0"/>
  <rect x="26" y="8" width="1" height="2" fill="#ffffff"/>
  <rect x="31" y="8" width="1" height="1" fill="#808080"/>
  <rect x="32" y="8" width="1" height="1" fill="#ffffff"/>
  <rect x="33" y="8" width="1" height="1" fill="#808080"/>
  <rect x="35" y="8" width="1" height="1" fill="#ffffff"/>
  <rect x="36" y="8" width="1" height="1" fill="#c0c0c0"/>
  <rect x="42" y="8" width="1" height="1" fill="#c0c0c0"/>
  <rect x="44" y="8" width="1" height="1" fill="#c0c0c0"/>
  <rect x="3" y="9" width="1" height="3" fill="#000080"/>
  <rect x="4" y="9" width="1" height="1" fill="#c0c0c0"/>
  <rect x="5" y="9" width="3" height="1" fill="#ffffff"/>
  <rect x="8" y="9" width="1" height="1" fill="#808080"/>
  <rect x="12" y="9" width="1" height="1" fill="#808080"/>
  <rect x="14" y="9" width="3" height="1" fill="#ffffff"/>
  <rect x="17" y="9" width="1" height="1" fill="#c0c0c0"/>
  <rect x="18" y="9" width="1" height="3" fill="#000080"/>
  <rect x="25" y="9" width="1" height="3" fill="#000080"/>
  <rect x="31" y="9" width="1" height="3" fill="#000080"/>
  <rect x="32" y="9" width="1" height="1" fill="#c0c0c0"/>
  <rect x="33" y="9" width="2" height="1" fill="#ffffff"/>
  <rect x="35" y="9" width="1" height="1" fill="#c0c0c0"/>
  <rect x="36" y="9" width="1" height="1" fill="#808080"/>
  <rect x="41" y="9" width="1" height="1" fill="#c0c0c0"/>
  <rect x="42" y="9" width="1" height="1" fill="#808080"/>
  <rect x="44" y="9" width="1" height="1" fill="#808080"/>
  <rect x="45" y="9" width="1" height="1" fill="#c0c0c0"/>
  <rect x="4" y="10" width="1" height="2" fill="#000080"/>
  <rect x="5" y="10" width="2" height="1" fill="#808080"/>
  <rect x="7" y="10" width="2" height="2" fill="#000080"/>
  <rect x="12" y="10" width="1" height="2" fill="#000080"/>
  <rect x="13" y="10" width="3" height="1" fill="#808080"/>
  <rect x="16" y="10" width="2" height="2" fill="#000080"/>
  <rect x="22" y="10" width="1" height="1" fill="#808080"/>
  <rect x="23" y="10" width="1" height="2" fill="#000080"/>
  <rect x="26" y="10" width="2" height="1" fill="#808080"/>
  <rect x="32" y="10" width="1" height="2" fill="#000080"/>
  <rect x="33" y="10" width="2" height="1" fill="#808080"/>
  <rect x="35" y="10" width="2" height="2" fill="#000080"/>
  <rect x="41" y="10" width="1" height="1" fill="#808080"/>
  <rect x="42" y="10" width="1" height="2" fill="#000080"/>
  <rect x="44" y="10" width="1" height="2" fill="#000080"/>
  <rect x="45" y="10" width="1" height="1" fill="#808080"/>
  <rect x="5" y="11" width="2" height="1" fill="#000080"/>
  <rect x="13" y="11" width="3" height="1" fill="#000080"/>
  <rect x="22" y="11" width="1" height="1" fill="#000080"/>
  <rect x="26" y="11" width="2" height="1" fill="#000080"/>
  <rect x="33" y="11" width="2" height="1" fill="#000080"/>
  <rect x="41" y="11" width="1" height="1" fill="#000080"/>
  <rect x="45" y="11" width="1" height="1" fill="#000080"/>
</svg>
